<?xml version="1.0" standalone="no"?>
<!DOCTYPE svg PUBLIC "-//W3C//DTD SVG 20010904//EN"
 "http://www.w3.org/TR/2001/REC-SVG-20010904/DTD/svg10.dtd">
<svg version="1.0" xmlns="http://www.w3.org/2000/svg"
 width="98.000000pt" height="91.000000pt" viewBox="0 0 98.000000 91.000000"
 preserveAspectRatio="xMidYMid meet">
<metadata>
Created by potrace 1.16, written by Peter Selinger 2001-2019
</metadata>
<g transform="translate(0.000000,91.000000) scale(0.100000,-0.100000)"
fill="#000000" stroke="none">
<path d="M102 620 l-102 -101 0 -219 0 -219 47 -6 c27 -3 58 -7 70 -9 20 -3
23 1 23 30 0 20 -5 34 -15 36 -35 8 7 29 76 38 95 12 269 13 269 1 0 -5 -12
-19 -26 -30 -19 -15 -25 -27 -22 -48 l3 -28 70 3 c68 4 84 6 210 37 60 14 60
14 35 -5 -50 -38 -135 -72 -204 -82 -39 -6 -143 -8 -231 -5 -136 4 -171 9
-233 30 l-72 25 0 -34 0 -34 490 0 490 0 0 207 0 206 -21 -19 c-21 -19 -21
-19 -53 19 -22 27 -39 37 -59 37 -18 0 -36 9 -47 23 l-18 22 -30 -29 c-35 -33
-33 -33 -122 43 -104 90 -92 86 -145 49 l-46 -33 -77 79 c-42 43 -89 83 -104
88 -16 6 -28 14 -28 19 0 25 -35 0 -128 -91z"/>
<path d="M223 133 l-53 -4 1 -37 c1 -20 3 -29 6 -19 5 21 22 22 29 3 8 -20 71
-29 138 -21 55 7 56 8 56 40 0 46 -16 49 -177 38z"/>
</g>
</svg>
